<?xml version="1.0" encoding="UTF-8" standalone="no"?>
<svg
   xmlns:dc="http://purl.org/dc/elements/1.1/"
   xmlns:cc="http://creativecommons.org/ns#"
   xmlns:rdf="http://www.w3.org/1999/02/22-rdf-syntax-ns#"
   xmlns:svg="http://www.w3.org/2000/svg"
   xmlns="http://www.w3.org/2000/svg"
   xmlns:sodipodi="http://sodipodi.sourceforge.net/DTD/sodipodi-0.dtd"
   xmlns:inkscape="http://www.inkscape.org/namespaces/inkscape"
   inkscape:version="1.0 (4035a4fb49, 2020-05-01)"
   sodipodi:docname="dslc_stacked.svg"
   inkscape:export-ydpi="155.47"
   inkscape:export-xdpi="155.47"
   inkscape:export-filename="C:\Users\jonth\Dropbox (Personal)\R\dslc-io\images\dslc_edu_stacked_black.png"
   id="svg8"
   version="1.1"
   viewBox="0 0 210 297"
   height="297mm"
   width="210mm">
  <defs
     id="defs2" />
  <sodipodi:namedview
     inkscape:window-maximized="1"
     inkscape:window-y="-8"
     inkscape:window-x="-8"
     inkscape:window-height="1369"
     inkscape:window-width="2560"
     showgrid="false"
     inkscape:document-rotation="0"
     inkscape:current-layer="layer1"
     inkscape:document-units="mm"
     inkscape:cy="242.89372"
     inkscape:cx="413.90281"
     inkscape:zoom="1.979899"
     inkscape:pageshadow="2"
     inkscape:pageopacity="0.0"
     borderopacity="1.0"
     bordercolor="#666666"
     pagecolor="#ffffff"
     id="base" />
  <metadata
     id="metadata5">
    <rdf:RDF>
      <cc:Work
         rdf:about="">
        <dc:format>image/svg+xml</dc:format>
        <dc:type
           rdf:resource="http://purl.org/dc/dcmitype/StillImage" />
        <dc:title />
      </cc:Work>
    </rdf:RDF>
  </metadata>
  <g
     id="layer1"
     inkscape:groupmode="layer"
     inkscape:label="Layer 1">
    <rect
       style="fill:#000000;stroke-width:0.696306;fill-opacity:1"
       id="rect892"
       width="92.604164"
       height="92.604164"
       x="37.548435"
       y="15.638079" />
    <g
       id="g890">
      <text
         id="text835-3"
         y="65.796814"
         x="58.952892"
         style="font-size:38.1px;line-height:0.65;font-family:'Courier New';-inkscape-font-specification:'Courier New';letter-spacing:0px;word-spacing:0px;stroke-width:0.264583;stroke:none;stroke-opacity:1;"
         xml:space="preserve"><tspan
           dx="0"
           id="tspan837-1"
           style="font-style:normal;font-variant:normal;font-weight:normal;font-stretch:normal;font-size:38.1px;font-family:Impact;-inkscape-font-specification:Impact;fill:#2daaf4;fill-opacity:1;stroke-width:0.264583;stroke:none;stroke-opacity:1;"
           y="65.796814"
           x="58.952892"
           sodipodi:role="line"><tspan
             dx="0"
             id="tspan860"
             style="font-style:normal;font-variant:normal;font-weight:normal;font-stretch:normal;font-size:38.1px;font-family:Impact;-inkscape-font-specification:Impact;fill:#2daaf4;fill-opacity:1;stroke-width:0.264583;stroke:none;stroke-opacity:1;">D</tspan></tspan></text>
      <text
         xml:space="preserve"
         style="font-size:38.1px;line-height:0.65;font-family:'Courier New';-inkscape-font-specification:'Courier New';letter-spacing:0px;word-spacing:0px;stroke-width:0.264583;stroke:none;stroke-opacity:1;"
         x="77.425079"
         y="65.673355"
         id="text835-3-5"><tspan
           sodipodi:role="line"
           x="77.425079"
           y="65.673355"
           style="font-style:normal;font-variant:normal;font-weight:normal;font-stretch:normal;font-size:38.1px;font-family:Impact;-inkscape-font-specification:Impact;fill:#2daaf4;fill-opacity:1;stroke-width:0.264583;stroke:none;stroke-opacity:1;"
           id="tspan883">S</tspan></text>
      <text
         xml:space="preserve"
         style="font-size:38.1px;line-height:0.65;font-family:'Courier New';-inkscape-font-specification:'Courier New';letter-spacing:0px;word-spacing:0px;stroke-width:0.264583;stroke:none;stroke-opacity:1;"
         x="76.383286"
         y="97.29718"
         id="text835-3-5-2-7"><tspan
           sodipodi:role="line"
           x="76.383286"
           y="97.29718"
           style="font-style:normal;font-variant:normal;font-weight:normal;font-stretch:normal;font-size:38.1px;font-family:Impact;-inkscape-font-specification:Impact;fill:#2daaf4;fill-opacity:1;stroke-width:0.264583;stroke:none;stroke-opacity:1;"
           id="tspan883-9-8">C</tspan></text>
      <g
         style="stroke:none;stroke-opacity:1"
         id="g860">
        <text
           xml:space="preserve"
           style="font-size:38.1px;line-height:0.65;font-family:'Courier New';-inkscape-font-specification:'Courier New';letter-spacing:0px;word-spacing:0px;stroke-width:0.264583;stroke:none;stroke-opacity:1"
           x="58.931801"
           y="96.664658"
           id="text835-3-5-2"><tspan
             sodipodi:role="line"
             x="58.931801"
             y="96.664658"
             style="font-style:normal;font-variant:normal;font-weight:normal;font-stretch:normal;font-size:38.1px;font-family:Impact;-inkscape-font-specification:Impact;fill:#2daaf4;fill-opacity:1;stroke-width:0.264583;stroke:none;stroke-opacity:1"
             id="tspan883-9">L</tspan></text>
        <rect
           y="90.636826"
           x="72.441811"
           height="6.0399084"
           width="5.4334078"
           id="rect924"
           style="fill:#2daaf4;fill-opacity:1;stroke:none;stroke-width:1.08297;stroke-opacity:1" />
      </g>
      <path
         id="path936"
         d="m 57.782835,29.715516 c -0.22089,0.161311 -0.411175,0.358812 -0.564657,0.583801 l -5.631943,8.348739 c -0.18937,0.284638 -0.18193,0.655541 0.0192,0.930973 0.201144,0.275431 0.552184,0.3954 0.880958,0.30165 l 1.995191,-0.583143 c 0.06659,1.030189 0.42038,2.047149 1.05966,2.922531 l 0.559621,0.766301 c 0.565595,0.774479 0.854593,1.788589 1.001026,2.647564 0.08165,0.483965 0.134754,0.980401 0.135228,1.473464 -0.0018,0.180993 0.08535,0.351629 0.236011,0.454858 0.150663,0.103225 0.340869,0.123212 0.508565,0.05511 l 2.063956,-0.838253 c 0.136439,-0.05365 0.243198,-0.16512 0.29832,-0.301492 0.0551,-0.136409 0.05032,-0.291819 -0.0135,-0.425013 -0.617846,-1.338444 -1.499857,-2.299994 -2.222056,-2.922474 -0.370066,-0.323509 -0.776097,-0.633297 -1.204595,-0.876502 l -0.489917,-0.670853 c -0.601443,-0.823568 -0.89087,-1.803911 -0.862252,-2.77818 0.04309,-0.679598 0.249577,-1.353064 0.630731,-1.953387 l 3.052687,-4.809288 c 0.159886,-0.250576 0.493167,-0.326699 0.743736,-0.166815 0.250574,0.159886 0.326697,0.493167 0.166812,0.743735 l -3.052692,4.809299 c -0.240567,0.380573 -0.388451,0.802179 -0.447937,1.230314 l 5.499485,-1.607704 c 0.261028,-0.07773 0.507073,-0.19887 0.727962,-0.360185 0.220893,-0.161312 0.411175,-0.358814 0.564659,-0.5838 l 5.640645,-8.34255 c 0.191357,-0.281917 0.181931,-0.655543 -0.0192,-0.930973 -0.201149,-0.275433 -0.552189,-0.3954 -0.880961,-0.301651 l -9.666783,2.823746 c -0.26103,0.07774 -0.507072,0.198869 -0.727963,0.360184 z m 2.252227,14.077427 c 0.703009,0.962647 3.779161,0.250759 6.669828,-1.860264 2.890669,-2.111022 4.505037,-4.824565 3.802027,-5.787212 l -3.312924,-3.660419 -2.85421,4.233657 c -0.223043,0.330142 -0.502276,0.617693 -0.821341,0.850702 -0.319064,0.233007 -0.680689,0.413465 -1.060322,0.523453 l -4.901505,1.430254 z"
         style="stroke-width:1.1;fill:#2daaf4;fill-opacity:1;stroke:#000000;stroke-opacity:1;stroke-miterlimit:4;stroke-dasharray:none" />
      <g
         style="fill:#2daaf4;fill-opacity:1;stroke:none;stroke-opacity:1"
         id="g1004"
         transform="matrix(0.12360869,0,0,0.1236087,96.317457,90.496299)">
        <g
           id="Layer_13"
           style="fill:#2daaf4;fill-opacity:1;stroke:none;stroke-opacity:1">
          <path
             id="path969"
             fill-rule="evenodd"
             d="m 14.015,34.455 -2.313,0.839 C 10.091,30.866 7.496,22.841 11.213,19.112 c 2.909,-2.914 7.903,-2.399 10.473,0.726 L 19.789,21.4 c -1.635,-1.992 -4.961,-2.427 -6.83,-0.553 -2.687,2.692 -0.131,10.344 1.056,13.608 m 16.313,-23.69 c -0.803,1.536 -2.143,2.587 -4.21,3.149 -0.541,-2.066 -0.301,-3.753 0.629,-5.219 0.933,-1.469 2.549,-2.799 4.76,-4.114 -0.033,2.578 -0.374,4.645 -1.179,6.184 z m 14.947,13.594 c 0,-6.961 -5.92,-12.361 -12.838,-11.677 C 34.698,9.048 34.337,4.103 34.151,0 30.696,1.792 26.569,3.805 24.418,7.151 23.796,5.272 23.024,3.446 22.095,1.691 l -3.182,1.516 c 1.858,3.427 3.613,7.224 4.347,11.456 -7.94,-5.069 -18.534,-0.049 -18.534,9.698 0.022,5.967 2.899,15.34 6.224,20.276 2.143,3.181 4.846,5.363 8.122,5.363 1.879,0 4.197,-1.001 5.93,-1.577 1.768,0.587 4.037,1.577 5.948,1.569 3.262,-0.015 5.967,-2.203 8.116,-5.386 3.348,-4.96 6.211,-14.243 6.209,-20.247 z"
             clip-rule="evenodd"
             style="fill:#2daaf4;fill-opacity:1;stroke:none;stroke-opacity:1" />
        </g>
        <g
           id="Layer_12"
           style="fill:#2daaf4;fill-opacity:1;stroke:none;stroke-opacity:1" />
        <g
           id="Layer_11"
           style="fill:#2daaf4;fill-opacity:1;stroke:none;stroke-opacity:1" />
        <g
           id="Layer_10"
           style="fill:#2daaf4;fill-opacity:1;stroke:none;stroke-opacity:1" />
        <g
           id="Layer_9"
           style="fill:#2daaf4;fill-opacity:1;stroke:none;stroke-opacity:1" />
        <g
           id="Layer_8"
           style="fill:#2daaf4;fill-opacity:1;stroke:none;stroke-opacity:1" />
        <g
           id="Layer_7"
           style="fill:#2daaf4;fill-opacity:1;stroke:none;stroke-opacity:1" />
        <g
           id="Layer_6"
           style="fill:#2daaf4;fill-opacity:1;stroke:none;stroke-opacity:1" />
        <g
           id="Layer_5"
           style="fill:#2daaf4;fill-opacity:1;stroke:none;stroke-opacity:1" />
        <g
           id="Layer_4"
           style="fill:#2daaf4;fill-opacity:1;stroke:none;stroke-opacity:1" />
        <g
           id="Layer_3"
           style="fill:#2daaf4;fill-opacity:1;stroke:none;stroke-opacity:1" />
        <g
           id="Layer_2"
           style="fill:#2daaf4;fill-opacity:1;stroke:none;stroke-opacity:1" />
      </g>
      <text
         id="text835-3-5-2-7-5"
         y="96.453491"
         x="102.42019"
         style="font-size:19.05px;line-height:0.65;font-family:'Courier New';-inkscape-font-specification:'Courier New';letter-spacing:0px;word-spacing:0px;stroke-width:0.264583;stroke:none;stroke-opacity:1;"
         xml:space="preserve"><tspan
           id="tspan883-9-8-5"
           style="font-style:normal;font-variant:normal;font-weight:normal;font-stretch:normal;font-size:19.05px;font-family:Impact;-inkscape-font-specification:Impact;fill:#2daaf4;fill-opacity:1;stroke-width:0.264583;stroke:none;stroke-opacity:1;"
           y="96.453491"
           x="102.42019"
           sodipodi:role="line">io</tspan></text>
    </g>
  </g>
</svg>
